<svg version="1.1" viewBox="0.0 0.0 1706.6666666666667 960.0" fill="none" stroke="none" stroke-linecap="square" stroke-miterlimit="10" xmlns:xlink="http://www.w3.org/1999/xlink" xmlns="http://www.w3.org/2000/svg"><clipPath id="g13642f7454b_0_0.0"><path d="m0 0l1706.6666 0l0 960.0l-1706.6666 0l0 -960.0z" clip-rule="nonzero"/></clipPath><g clip-path="url(#g13642f7454b_0_0.0)"><path fill="#f1e1ca" d="m0 0l1706.6666 0l0 960.0l-1706.6666 0z" fill-rule="evenodd"/><path fill="#4d8495" d="m40.49995 40.0l1627.4999 0l0 880.0l-1627.4999 0z" fill-rule="evenodd"/><path fill="#f1e1ca" d="m1600.0 884.20874l0 0c0 -15.463989 12.536011 -28.0 28.0 -28.0l0 0c7.4260254 0 14.547974 2.9500122 19.79895 8.200989c5.2510986 5.2510376 8.20105 12.372925 8.20105 19.799011l0 0c0 15.463989 -12.536011 28.0 -28.0 28.0l0 0c-15.463989 0 -28.0 -12.536011 -28.0 -28.0z" fill-rule="evenodd"/><path fill="#4d8495" d="m1572.6903 875.9974l0 0c0 -23.900452 20.298706 -43.275574 45.338623 -43.275574l0 0c12.024536 0 23.556519 4.559387 32.059204 12.67511c8.502563 8.115723 13.279297 19.123047 13.279297 30.600464l0 0c0 23.900452 -20.298706 43.275574 -45.3385 43.275574l0 0c-25.039917 0 -45.338623 -19.375122 -45.338623 -43.275574z" fill-rule="evenodd"/><path fill="#000000" fill-opacity="0.0" d="m46.608925 35.92651l1613.4489 0l0 161.6063l-1613.4489 0z" fill-rule="evenodd"/><path fill="#f1e1ca" d="m496.8846 114.0465l1.0 -58.312496l13.828125 0l6.4062805 33.906246l6.90625 -33.906246l13.328125 0l1.0 58.312496l-9.140625 0l-1.078125 -38.8125l-6.765625 38.8125l-8.140625 0l-7.2031555 -39.09375l-0.859375 39.09375l-9.28125 0zm50.891144 0l0 -58.312496l16.062561 0q5.90625 0 10.21875 1.296875q4.328125 1.28125 6.734375 4.640625q2.421875 3.3437462 2.421875 9.468746q0 3.59375 -0.578125 6.40625q-0.578125 2.796875 -2.125 4.859375q-1.546875 2.046875 -4.4375 3.421875l8.0 28.21875l-13.328125 0l-6.40625 -26.140625l-3.671875 0l0 26.140625l-12.890686 0zm12.890686 -33.546875l3.609375 0q2.734375 0 4.234375 -0.96875q1.515625 -0.984375 2.125 -2.8125q0.625 -1.84375 0.625 -4.4375q0 -3.734375 -1.375 -5.828125q-1.359375 -2.09375 -5.03125 -2.09375l-4.1875 0l0 16.140625zm46.452087 34.40625q-6.5625 0 -10.375 -2.296875q-3.8125 -2.3125 -5.46875 -6.625q-1.65625 -4.328125 -1.65625 -10.296875l0 -21.671875q0 -6.046875 1.65625 -10.296871q1.65625 -4.25 5.46875 -6.515625q3.8125 -2.265625 10.375 -2.265625q6.609375 0 10.46875 2.265625q3.859375 2.265625 5.5 6.515625q1.65625 4.249996 1.65625 10.296871l0 21.671875q0 5.96875 -1.65625 10.296875q-1.640625 4.3125 -5.5 6.625q-3.859375 2.296875 -10.46875 2.296875zm0 -9.140625q2.015625 0 2.9375 -1.0q0.9375 -1.015625 1.21875 -2.59375q0.296875 -1.59375 0.296875 -3.25l0 -28.078125q0 -1.71875 -0.296875 -3.265625q-0.28125 -1.5625 -1.21875 -2.5625q-0.921875 -1.0156212 -2.9375 -1.0156212q-1.875 0 -2.8125 1.0156212q-0.9375 1.0 -1.234375 2.5625q-0.28125 1.546875 -0.28125 3.265625l0 28.078125q0 1.65625 0.25 3.25q0.25 1.578125 1.15625 2.59375q0.90625 1.0 2.921875 1.0z" fill-rule="nonzero"/><path fill="#f1e1ca" d="m638.4824 87.0465l-5.703125 -3.421875l4.3125 -6.125l-6.40625 -2.453125l2.15625 -5.8125l5.8125 3.234375l-0.78125 -7.015625l7.328125 0l-0.78125 7.015625l5.875 -3.234375l2.171875 5.875l-6.484375 2.453125l4.375 6.0625l-5.8125 3.421875l-3.0 -6.359375l-3.0625 6.359375z" fill-rule="nonzero"/><path fill="#f1e1ca" d="m676.2007 114.0465l1.0 -58.312496l13.828125 0l6.40625 33.906246l6.90625 -33.906246l13.328125 0l1.0 58.312496l-9.140625 0l-1.078125 -38.8125l-6.765625 38.8125l-8.140625 0l-7.203125 -39.09375l-0.859375 39.09375l-9.28125 0zm58.81305 0.71875q-3.15625 0 -5.328125 -1.5q-2.15625 -1.515625 -3.234375 -3.859375q-1.078125 -2.34375 -1.078125 -4.796875q0 -3.875 1.546875 -6.53125q1.546875 -2.671875 4.0625 -4.46875q2.53125 -1.8125 5.546875 -3.0625q3.03125 -1.265625 5.984375 -2.28125l0 -4.171875q0 -1.078125 -0.21875 -1.90625q-0.21875 -0.828125 -0.734375 -1.296875q-0.5 -0.46875 -1.5 -0.46875q-1.015625 0 -1.5625 0.4375q-0.53125 0.421875 -0.75 1.1875q-0.203125 0.75 -0.28125 1.6875l-0.28125 3.03125l-10.953125 -0.4375q0.359375 -7.484375 4.0 -11.046875q3.640625 -3.578125 10.90625 -3.578125q6.34375 0 9.46875 3.5q3.125 3.484375 3.125 9.03125l0 19.4375q0 2.59375 0.109375 4.546875q0.109375 1.9375 0.28125 3.375q0.1875 1.4375 0.34375 2.453125l-10.515625 0q-0.21875 -1.65625 -0.515625 -3.59375q-0.28125 -1.953125 -0.421875 -2.3125q-0.71875 2.59375 -2.703125 4.609375q-1.984375 2.015625 -5.296875 2.015625zm4.1875 -7.921875q0.71875 0 1.328125 -0.28125q0.609375 -0.296875 1.109375 -0.796875q0.515625 -0.5 0.875 -1.0l0 -11.375q-1.453125 0.859375 -2.671875 1.765625q-1.21875 0.890625 -2.09375 1.96875q-0.859375 1.078125 -1.328125 2.34375q-0.46875 1.265625 -0.46875 2.84375q0 2.09375 0.859375 3.3125q0.875 1.21875 2.390625 1.21875zm21.662598 7.203125l0 -41.609375l11.734375 0l0 6.90625q2.015625 -3.59375 4.03125 -5.5q2.015625 -1.921875 4.90625 -1.921875q0.578125 0 1.0 0.046875q0.4375 0.03125 0.796875 0.171875l0 11.671875q-0.796875 -0.359375 -1.765625 -0.609375q-0.96875 -0.265625 -2.046875 -0.265625q-2.015625 0 -3.75 1.09375q-1.734375 1.078125 -3.171875 2.9375l0 27.078125l-11.734375 0zm27.435425 0l0 -58.312496l11.671875 0l0 32.32812l10.21875 -15.625l13.171875 0l-11.09375 17.0625l10.953125 24.546875l-12.8125 0l-7.34375 -19.796875l-3.09375 3.953125l0 15.84375l-11.671875 0zm52.201355 0.71875q-4.53125 0 -7.78125 -1.609375q-3.234375 -1.625 -4.96875 -4.75q-1.71875 -3.140625 -1.71875 -7.53125l0 -15.265625q0 -4.46875 1.71875 -7.5625q1.734375 -3.09375 5.0 -4.71875q3.28125 -1.625 7.75 -1.625q4.609375 0 7.671875 1.59375q3.0625 1.578125 4.609375 4.6875q1.546875 3.09375 1.546875 7.625l0 8.34375l-16.703125 0l0 8.0q0 1.578125 0.359375 2.59375q0.359375 1.0 1.0 1.4375q0.65625 0.4375 1.515625 0.4375q0.859375 0 1.546875 -0.390625q0.6875 -0.40625 1.078125 -1.265625q0.390625 -0.875 0.390625 -2.375l0 -4.40625l10.8125 0l0 4.03125q0 6.34375 -3.671875 9.546875q-3.671875 3.203125 -10.15625 3.203125zm-2.875 -26.28125l5.890625 0l0 -4.171875q0 -1.65625 -0.390625 -2.59375q-0.390625 -0.9375 -1.078125 -1.296875q-0.6875 -0.359375 -1.625 -0.359375q-0.859375 0 -1.46875 0.4375q-0.609375 0.421875 -0.96875 1.46875q-0.359375 1.046875 -0.359375 2.984375l0 3.53125zm35.996277 26.0q-4.6875 0 -7.25 -1.359375q-2.546875 -1.375 -3.484375 -4.0q-0.9375 -2.640625 -0.9375 -6.375l0 -22.609375l-4.03125 0l0 -7.703125l4.03125 0l0 -12.671871l11.890625 0l0 12.671871l5.90625 0l0 7.703125l-5.90625 0l0 21.453125q0 1.796875 1.03125 2.59375q1.046875 0.78125 2.640625 0.78125q0.9375 0 1.71875 -0.09375q0.796875 -0.109375 1.4375 -0.1875l0 9.21875q-0.921875 0.140625 -2.953125 0.359375q-2.015625 0.21875 -4.09375 0.21875zm31.669983 -0.4375l0 -58.312496l14.765625 0q7.640625 0 11.875 1.90625q4.25 1.90625 5.96875 5.96875q1.734375 4.062496 1.734375 10.546871l0 21.171875q0 6.546875 -1.734375 10.6875q-1.71875 4.140625 -5.9375 6.09375q-4.203125 1.9375 -11.765625 1.9375l-14.90625 0zm12.890625 -8.921875l2.015625 0q2.953125 0 4.25 -0.859375q1.296875 -0.875 1.625 -2.59375q0.328125 -1.734375 0.328125 -4.328125l0 -25.421875q0 -2.59375 -0.40625 -4.171875q-0.390625 -1.578125 -1.6875 -2.296875q-1.296875 -0.71875 -4.171875 -0.71875l-1.953125 0l0 40.390625zm37.223267 9.640625q-3.15625 0 -5.328125 -1.5q-2.15625 -1.515625 -3.234375 -3.859375q-1.078125 -2.34375 -1.078125 -4.796875q0 -3.875 1.546875 -6.53125q1.546875 -2.671875 4.0625 -4.46875q2.53125 -1.8125 5.546875 -3.0625q3.03125 -1.265625 5.984375 -2.28125l0 -4.171875q0 -1.078125 -0.21875 -1.90625q-0.21875 -0.828125 -0.734375 -1.296875q-0.5 -0.46875 -1.5 -0.46875q-1.015625 0 -1.5625 0.4375q-0.53125 0.421875 -0.75 1.1875q-0.203125 0.75 -0.28125 1.6875l-0.28125 3.03125l-10.953125 -0.4375q0.359375 -7.484375 4.0 -11.046875q3.640625 -3.578125 10.90625 -3.578125q6.34375 0 9.46875 3.5q3.125 3.484375 3.125 9.03125l0 19.4375q0 2.59375 0.109375 4.546875q0.109375 1.9375 0.28125 3.375q0.1875 1.4375 0.34375 2.453125l-10.515625 0q-0.21875 -1.65625 -0.515625 -3.59375q-0.28125 -1.953125 -0.421875 -2.3125q-0.71875 2.59375 -2.703125 4.609375q-1.984375 2.015625 -5.296875 2.015625zm4.1875 -7.921875q0.71875 0 1.328125 -0.28125q0.609375 -0.296875 1.109375 -0.796875q0.515625 -0.5 0.875 -1.0l0 -11.375q-1.453125 0.859375 -2.671875 1.765625q-1.21875 0.890625 -2.09375 1.96875q-0.859375 1.078125 -1.328125 2.34375q-0.46875 1.265625 -0.46875 2.84375q0 2.09375 0.859375 3.3125q0.875 1.21875 2.390625 1.21875zm34.334534 7.921875q-5.46875 0 -9.109375 -2.4375q-3.625 -2.453125 -5.9375 -8.0l8.0 -3.53125q1.140625 2.8125 2.6875 4.4375q1.5625 1.609375 3.421875 1.609375q1.375 0 2.046875 -0.578125q0.6875 -0.578125 0.6875 -1.578125q0 -1.65625 -1.265625 -3.015625q-1.25 -1.375 -4.484375 -4.046875l-3.03125 -2.515625q-3.3125 -2.8125 -5.21875 -5.4375q-1.90625 -2.625 -1.90625 -6.515625q0 -3.375 1.765625 -5.96875q1.765625 -2.59375 4.71875 -4.03125q2.953125 -1.453125 6.328125 -1.453125q5.109375 0 8.5625 2.8125q3.46875 2.8125 4.828125 7.921875l-7.546875 3.453125q-0.4375 -1.359375 -1.234375 -2.71875q-0.78125 -1.375 -1.90625 -2.3125q-1.109375 -0.9375 -2.40625 -0.9375q-1.15625 0 -1.84375 0.65625q-0.6875 0.640625 -0.6875 1.71875q0 1.359375 1.546875 2.953125q1.5625 1.578125 4.296875 3.8125l2.953125 2.59375q1.796875 1.515625 3.515625 3.25q1.734375 1.71875 2.84375 3.8125q1.125 2.078125 1.125 4.75q0 3.59375 -1.8125 6.15625q-1.796875 2.546875 -4.71875 3.84375q-2.90625 1.296875 -6.21875 1.296875zm17.79364 -0.71875l0 -58.312496l11.65625 0l0 20.374996q2.3125 -2.3125 4.828125 -3.359375q2.515625 -1.046875 5.390625 -1.046875q2.53125 0 4.21875 1.265625q1.6875 1.265625 2.546875 3.46875q0.875 2.1875 0.875 5.0l0 32.609375l-11.671875 0l0 -30.953125q0 -1.515625 -0.5 -2.3125q-0.5 -0.796875 -1.875 -0.796875q-0.71875 0 -1.734375 0.40625q-1.0 0.390625 -2.078125 1.109375l0 32.546875l-11.65625 0zm57.2417 0.71875q-2.3125 0 -4.578125 -1.046875q-2.265625 -1.046875 -4.359375 -2.84375l0 3.171875l-11.734375 0l0 -58.312496l11.734375 0l0 19.718746q2.15625 -1.875 4.5 -2.8125q2.34375 -0.9375 4.578125 -0.9375q2.375 0 4.0625 0.9375q1.6875 0.9375 2.765625 2.640625q1.09375 1.6875 1.59375 3.921875q0.5 2.234375 0.5 4.75l0 17.921875q0 3.890625 -1.046875 6.78125q-1.046875 2.875 -3.0625 4.5q-2.015625 1.609375 -4.953125 1.609375zm-5.703125 -7.5625q1.15625 0 1.796875 -0.640625q0.65625 -0.65625 0.9375 -1.6875q0.296875 -1.046875 0.296875 -2.34375l0 -19.4375q0 -1.234375 -0.296875 -2.203125q-0.28125 -0.96875 -0.890625 -1.546875q-0.609375 -0.578125 -1.6875 -0.578125q-0.9375 0 -1.765625 0.40625q-0.828125 0.390625 -1.625 0.96875l0 25.921875q0.796875 0.5 1.625 0.828125q0.828125 0.3125 1.609375 0.3125zm35.150757 7.5625q-4.46875 0 -7.75 -1.5q-3.265625 -1.515625 -5.03125 -4.546875q-1.765625 -3.03125 -1.765625 -7.5625l0 -15.84375q0 -4.53125 1.765625 -7.546875q1.765625 -3.03125 5.03125 -4.546875q3.28125 -1.515625 7.75 -1.515625q4.453125 0 7.734375 1.515625q3.28125 1.515625 5.078125 4.546875q1.796875 3.015625 1.796875 7.546875l0 15.84375q0 4.53125 -1.796875 7.5625q-1.796875 3.03125 -5.078125 4.546875q-3.28125 1.5 -7.734375 1.5zm0.0625 -7.78125q1.15625 0 1.796875 -0.609375q0.65625 -0.609375 0.90625 -1.71875q0.25 -1.125 0.25 -2.703125l0 -17.421875q0 -1.59375 -0.25 -2.703125q-0.25 -1.125 -0.90625 -1.734375q-0.640625 -0.609375 -1.796875 -0.609375q-1.15625 0 -1.8125 0.609375q-0.640625 0.609375 -0.921875 1.734375q-0.28125 1.109375 -0.28125 2.703125l0 17.421875q0 1.578125 0.28125 2.703125q0.28125 1.109375 0.921875 1.71875q0.65625 0.609375 1.8125 0.609375zm29.588501 7.78125q-3.15625 0 -5.328125 -1.5q-2.15625 -1.515625 -3.234375 -3.859375q-1.078125 -2.34375 -1.078125 -4.796875q0 -3.875 1.546875 -6.53125q1.546875 -2.671875 4.0625 -4.46875q2.53125 -1.8125 5.546875 -3.0625q3.03125 -1.265625 5.984375 -2.28125l0 -4.171875q0 -1.078125 -0.21875 -1.90625q-0.21875 -0.828125 -0.734375 -1.296875q-0.5 -0.46875 -1.5 -0.46875q-1.015625 0 -1.5625 0.4375q-0.53125 0.421875 -0.75 1.1875q-0.203125 0.75 -0.28125 1.6875l-0.28125 3.03125l-10.953125 -0.4375q0.359375 -7.484375 4.0 -11.046875q3.640625 -3.578125 10.90625 -3.578125q6.34375 0 9.46875 3.5q3.125 3.484375 3.125 9.03125l0 19.4375q0 2.59375 0.109375 4.546875q0.109375 1.9375 0.28125 3.375q0.1875 1.4375 0.34375 2.453125l-10.515625 0q-0.21875 -1.65625 -0.515625 -3.59375q-0.28125 -1.953125 -0.421875 -2.3125q-0.71875 2.59375 -2.703125 4.609375q-1.984375 2.015625 -5.296875 2.015625zm4.1875 -7.921875q0.71875 0 1.328125 -0.28125q0.609375 -0.296875 1.109375 -0.796875q0.515625 -0.5 0.875 -1.0l0 -11.375q-1.453125 0.859375 -2.671875 1.765625q-1.21875 0.890625 -2.09375 1.96875q-0.859375 1.078125 -1.328125 2.34375q-0.46875 1.265625 -0.46875 2.84375q0 2.09375 0.859375 3.3125q0.875 1.21875 2.390625 1.21875zm21.662598 7.203125l0 -41.609375l11.734375 0l0 6.90625q2.015625 -3.59375 4.03125 -5.5q2.015625 -1.921875 4.90625 -1.921875q0.578125 0 1.0 0.046875q0.4375 0.03125 0.796875 0.171875l0 11.671875q-0.796875 -0.359375 -1.765625 -0.609375q-0.96875 -0.265625 -2.046875 -0.265625q-2.015625 0 -3.75 1.09375q-1.734375 1.078125 -3.171875 2.9375l0 27.078125l-11.734375 0zm36.435425 0.71875q-4.609375 0 -7.125 -3.234375q-2.515625 -3.25 -2.515625 -9.578125l0 -17.203125q0 -3.890625 1.078125 -6.8125q1.078125 -2.921875 3.234375 -4.578125q2.15625 -1.65625 5.328125 -1.65625q2.296875 0 4.390625 0.90625q2.09375 0.90625 3.8125 2.40625l0 -19.281246l11.734375 0l0 58.312496l-11.734375 0l0 -3.234375q-1.9375 1.859375 -4.03125 2.90625q-2.078125 1.046875 -4.171875 1.046875zm5.109375 -7.484375q0.578125 0 1.40625 -0.28125q0.828125 -0.296875 1.6875 -0.796875l0 -26.28125q-0.71875 -0.359375 -1.515625 -0.640625q-0.78125 -0.296875 -1.5 -0.296875q-1.59375 0 -2.3125 1.328125q-0.71875 1.328125 -0.71875 3.203125l0 19.15625q0 1.296875 0.28125 2.34375q0.296875 1.046875 0.9375 1.65625q0.65625 0.609375 1.734375 0.609375z" fill-rule="nonzero"/><path fill="#f1e1ca" d="m809.5455 174.8465l0 -36.71875l5.71875 0l7.515625 17.6875l0 -17.6875l6.71875 0l0 36.71875l-5.5 0l-7.515625 -19.03125l0 19.03125l-6.9375 0zm33.585327 0.453125q-2.859375 0 -4.90625 -1.015625q-2.03125 -1.03125 -3.125 -3.0q-1.078125 -1.96875 -1.078125 -4.734375l0 -9.609375q0 -2.8125 1.078125 -4.75q1.09375 -1.953125 3.15625 -2.96875q2.0625 -1.03125 4.875 -1.03125q2.90625 0 4.828125 1.0q1.921875 1.0 2.890625 2.953125q0.984375 1.9375 0.984375 4.796875l0 5.265625l-10.515625 0l0 5.03125q0 0.984375 0.21875 1.625q0.234375 0.640625 0.640625 0.90625q0.40625 0.265625 0.953125 0.265625q0.546875 0 0.96875 -0.234375q0.4375 -0.25 0.6875 -0.796875q0.25 -0.546875 0.25 -1.5l0 -2.765625l6.796875 0l0 2.546875q0 3.984375 -2.3125 6.0q-2.3125 2.015625 -6.390625 2.015625zm-1.8125 -16.546875l3.71875 0l0 -2.625q0 -1.046875 -0.25 -1.625q-0.25 -0.59375 -0.6875 -0.8125q-0.421875 -0.234375 -1.015625 -0.234375q-0.53125 0 -0.921875 0.28125q-0.390625 0.265625 -0.625 0.921875q-0.21875 0.65625 -0.21875 1.875l0 2.21875zm17.05426 16.09375l-3.859375 -26.203125l6.15625 0l1.90625 14.875l2.046875 -14.875l5.34375 0l1.765625 15.234375l2.21875 -15.234375l5.71875 0l-3.90625 26.203125l-6.34375 0l-2.265625 -14.734375l-2.53125 14.734375l-6.25 0zm32.623352 0.453125q-3.4375 0 -5.734375 -1.53125q-2.28125 -1.546875 -3.734375 -5.046875l5.03125 -2.21875q0.71875 1.765625 1.6875 2.796875q0.984375 1.015625 2.171875 1.015625q0.859375 0 1.28125 -0.359375q0.4375 -0.375 0.4375 -1.0q0 -1.046875 -0.796875 -1.90625q-0.796875 -0.859375 -2.828125 -2.53125l-1.90625 -1.59375q-2.09375 -1.765625 -3.296875 -3.421875q-1.1875 -1.65625 -1.1875 -4.109375q0 -2.125 1.109375 -3.75q1.109375 -1.640625 2.96875 -2.546875q1.859375 -0.90625 3.984375 -0.90625q3.21875 0 5.390625 1.765625q2.1875 1.765625 3.046875 4.984375l-4.765625 2.1875q-0.265625 -0.859375 -0.765625 -1.71875q-0.5 -0.875 -1.203125 -1.453125q-0.703125 -0.59375 -1.515625 -0.59375q-0.734375 0 -1.171875 0.40625q-0.421875 0.40625 -0.421875 1.09375q0 0.859375 0.96875 1.859375q0.984375 0.984375 2.703125 2.390625l1.859375 1.640625q1.140625 0.953125 2.21875 2.046875q1.09375 1.078125 1.796875 2.390625q0.703125 1.3125 0.703125 3.0q0 2.265625 -1.140625 3.875q-1.125 1.609375 -2.96875 2.421875q-1.828125 0.8125 -3.921875 0.8125z" fill-rule="nonzero"/><path fill="#000000" fill-opacity="0.0" d="m1340.0052 874.958l356.44092 0l0 50.078735l-356.44092 0z" fill-rule="evenodd"/><path fill="#f1e1ca" d="m1352.724 896.403l-1.59375 -0.96875l2.0 -2.8125l-2.984375 -1.140625l0.65625 -1.71875l2.859375 1.515625l-0.296875 -3.484375l2.046875 0l-0.328125 3.484375l2.890625 -1.515625l0.625 1.71875l-2.984375 1.171875l2.03125 2.78125l-1.65625 0.96875l-1.609375 -3.171875l-1.65625 3.171875z" fill-rule="nonzero"/><path fill="#f1e1ca" d="m1366.3235 908.278l0.359375 -20.515625l4.859375 0l2.265625 11.921875l2.421875 -11.921875l4.6875 0l0.359375 20.515625l-3.21875 0l-0.375 -13.65625l-2.390625 13.65625l-2.859375 0l-2.53125 -13.75l-0.296875 13.75l-3.28125 0z" fill-rule="nonzero"/><path fill="#f1e1ca" d="m1386.717 908.48114q-0.859375 0 -1.515625 -0.484375q-0.65625 -0.5 -1.046875 -1.265625q-0.375 -0.78125 -0.375 -1.640625q0 -1.375 0.453125 -2.3125q0.453125 -0.9375 1.25 -1.578125q0.8125 -0.640625 1.859375 -1.125q1.046875 -0.484375 2.21875 -0.9375l0 -1.046875q0 -0.875 -0.109375 -1.453125q-0.09375 -0.59375 -0.421875 -0.875q-0.3125 -0.296875 -0.9375 -0.296875q-0.5625 0 -0.90625 0.25q-0.34375 0.25 -0.5 0.71875q-0.140625 0.46875 -0.140625 1.109375l0 0.734375l-2.6875 -0.109375q0.046875 -2.421875 1.109375 -3.578125q1.0625 -1.15625 3.296875 -1.15625q2.171875 0 3.078125 1.1875q0.921875 1.1875 0.921875 3.453125l0 6.6875q0 0.671875 0.03125 1.3125q0.046875 0.625 0.109375 1.171875q0.0625 0.546875 0.109375 1.03125l-2.484375 0q-0.0625 -0.40625 -0.1875 -1.015625q-0.109375 -0.625 -0.15625 -1.140625q-0.25 0.859375 -0.984375 1.609375q-0.71875 0.75 -1.984375 0.75zm1.0625 -2.328125q0.40625 0 0.765625 -0.21875q0.359375 -0.234375 0.625 -0.53125q0.28125 -0.296875 0.390625 -0.46875l0 -4.15625q-0.640625 0.359375 -1.203125 0.71875q-0.546875 0.34375 -0.96875 0.75q-0.421875 0.390625 -0.65625 0.890625q-0.234375 0.484375 -0.234375 1.109375q0 0.890625 0.328125 1.40625q0.328125 0.5 0.953125 0.5zm7.27417 2.125l0 -14.640625l2.703125 0l0 14.640625l-2.703125 0zm0 -16.8125l0 -2.84375l2.703125 0l0 2.84375l-2.703125 0zm5.628296 16.8125l0 -14.640625l2.703125 0l0 1.4375q0.734375 -0.671875 1.609375 -1.15625q0.890625 -0.484375 1.96875 -0.484375q0.875 0 1.34375 0.453125q0.46875 0.453125 0.65625 1.140625q0.203125 0.6875 0.203125 1.390625l0 11.859375l-2.71875 0l0 -11.0625q0 -0.796875 -0.234375 -1.21875q-0.21875 -0.4375 -0.921875 -0.4375q-0.46875 0 -0.96875 0.265625q-0.484375 0.265625 -0.9375 0.65625l0 11.796875l-2.703125 0zm15.009644 0.203125q-1.140625 0 -1.84375 -0.421875q-0.6875 -0.4375 -1.0 -1.21875q-0.3125 -0.796875 -0.3125 -1.859375l0 -9.546875l-1.546875 0l0 -1.796875l1.546875 0l0 -4.28125l2.703125 0l0 4.28125l2.359375 0l0 1.796875l-2.359375 0l0 9.375q0 0.859375 0.28125 1.234375q0.28125 0.359375 1.0625 0.359375q0.203125 0 0.46875 -0.015625q0.265625 -0.03125 0.515625 -0.0625l0 2.0q-0.5 0.078125 -0.9375 0.109375q-0.421875 0.046875 -0.9375 0.046875zm7.9573975 0q-1.71875 0 -2.65625 -0.671875q-0.9375 -0.671875 -1.3125 -1.96875q-0.359375 -1.3125 -0.359375 -3.203125l0 -3.34375q0 -1.953125 0.375 -3.25q0.375 -1.296875 1.328125 -1.953125q0.953125 -0.65625 2.625 -0.65625q1.84375 0 2.71875 0.765625q0.875 0.75 1.15625 2.1875q0.28125 1.4375 0.28125 3.4375l0 1.1875l-5.78125 0l0 2.9375q0 0.890625 0.15625 1.453125q0.171875 0.546875 0.53125 0.8125q0.375 0.265625 0.96875 0.265625q0.59375 0 0.90625 -0.28125q0.328125 -0.296875 0.4375 -0.84375q0.125 -0.546875 0.125 -1.28125l0 -0.890625l2.625 0l0 0.5625q0 2.203125 -0.9375 3.46875q-0.9375 1.265625 -3.1875 1.265625zm-1.625 -8.9375l3.125 0l0 -1.328125q0 -0.90625 -0.109375 -1.515625q-0.09375 -0.625 -0.421875 -0.9375q-0.3125 -0.328125 -1.0 -0.328125q-0.65625 0 -1.0 0.3125q-0.34375 0.296875 -0.46875 1.015625q-0.125 0.71875 -0.125 2.0l0 0.78125zm8.241211 8.734375l0 -14.640625l2.703125 0l0 1.4375q0.734375 -0.671875 1.609375 -1.15625q0.890625 -0.484375 1.96875 -0.484375q0.875 0 1.34375 0.453125q0.46875 0.453125 0.65625 1.140625q0.203125 0.6875 0.203125 1.390625l0 11.859375l-2.71875 0l0 -11.0625q0 -0.796875 -0.234375 -1.21875q-0.21875 -0.4375 -0.921875 -0.4375q-0.46875 0 -0.96875 0.265625q-0.484375 0.265625 -0.9375 0.65625l0 11.796875l-2.703125 0zm13.744141 0.203125q-0.859375 0 -1.515625 -0.484375q-0.65625 -0.5 -1.046875 -1.265625q-0.375 -0.78125 -0.375 -1.640625q0 -1.375 0.453125 -2.3125q0.453125 -0.9375 1.25 -1.578125q0.8125 -0.640625 1.859375 -1.125q1.046875 -0.484375 2.21875 -0.9375l0 -1.046875q0 -0.875 -0.109375 -1.453125q-0.09375 -0.59375 -0.421875 -0.875q-0.3125 -0.296875 -0.9375 -0.296875q-0.5625 0 -0.90625 0.25q-0.34375 0.25 -0.5 0.71875q-0.140625 0.46875 -0.140625 1.109375l0 0.734375l-2.6875 -0.109375q0.046875 -2.421875 1.109375 -3.578125q1.0625 -1.15625 3.296875 -1.15625q2.171875 0 3.078125 1.1875q0.921875 1.1875 0.921875 3.453125l0 6.6875q0 0.671875 0.03125 1.3125q0.046875 0.625 0.109375 1.171875q0.0625 0.546875 0.109375 1.03125l-2.484375 0q-0.0625 -0.40625 -0.1875 -1.015625q-0.109375 -0.625 -0.15625 -1.140625q-0.25 0.859375 -0.984375 1.609375q-0.71875 0.75 -1.984375 0.75zm1.0625 -2.328125q0.40625 0 0.765625 -0.21875q0.359375 -0.234375 0.625 -0.53125q0.28125 -0.296875 0.390625 -0.46875l0 -4.15625q-0.640625 0.359375 -1.203125 0.71875q-0.546875 0.34375 -0.96875 0.75q-0.421875 0.390625 -0.65625 0.890625q-0.234375 0.484375 -0.234375 1.109375q0 0.890625 0.328125 1.40625q0.328125 0.5 0.953125 0.5zm7.102295 2.125l0 -14.640625l2.703125 0l0 1.4375q0.734375 -0.671875 1.609375 -1.15625q0.890625 -0.484375 1.96875 -0.484375q0.875 0 1.34375 0.453125q0.46875 0.453125 0.65625 1.140625q0.203125 0.6875 0.203125 1.390625l0 11.859375l-2.71875 0l0 -11.0625q0 -0.796875 -0.234375 -1.21875q-0.21875 -0.4375 -0.921875 -0.4375q-0.46875 0 -0.96875 0.265625q-0.484375 0.265625 -0.9375 0.65625l0 11.796875l-2.703125 0zm15.119019 0.203125q-1.796875 0 -2.734375 -0.71875q-0.921875 -0.71875 -1.234375 -2.03125q-0.3125 -1.328125 -0.3125 -3.078125l0 -3.359375q0 -1.859375 0.328125 -3.15625q0.328125 -1.3125 1.25 -2.0q0.921875 -0.703125 2.703125 -0.703125q1.59375 0 2.46875 0.53125q0.875 0.515625 1.203125 1.546875q0.328125 1.015625 0.328125 2.53125l0 0.859375l-2.453125 0l0 -0.890625q0 -0.953125 -0.140625 -1.5q-0.125 -0.5625 -0.453125 -0.8125q-0.328125 -0.265625 -0.9375 -0.265625q-0.65625 0 -1.015625 0.3125q-0.34375 0.296875 -0.46875 1.015625q-0.109375 0.71875 -0.109375 1.96875l0 4.609375q0 1.875 0.359375 2.515625q0.359375 0.625 1.265625 0.625q0.6875 0 1.0 -0.3125q0.3125 -0.328125 0.40625 -0.90625q0.09375 -0.578125 0.09375 -1.3125l0 -1.1875l2.453125 0l0 1.0q0 1.46875 -0.34375 2.546875q-0.34375 1.0625 -1.21875 1.625q-0.875 0.546875 -2.4375 0.546875zm10.456787 0q-1.71875 0 -2.65625 -0.671875q-0.9375 -0.671875 -1.3125 -1.96875q-0.359375 -1.3125 -0.359375 -3.203125l0 -3.34375q0 -1.953125 0.375 -3.25q0.375 -1.296875 1.328125 -1.953125q0.953125 -0.65625 2.625 -0.65625q1.84375 0 2.71875 0.765625q0.875 0.75 1.15625 2.1875q0.28125 1.4375 0.28125 3.4375l0 1.1875l-5.78125 0l0 2.9375q0 0.890625 0.15625 1.453125q0.171875 0.546875 0.53125 0.8125q0.375 0.265625 0.96875 0.265625q0.59375 0 0.90625 -0.28125q0.328125 -0.296875 0.4375 -0.84375q0.125 -0.546875 0.125 -1.28125l0 -0.890625l2.625 0l0 0.5625q0 2.203125 -0.9375 3.46875q-0.9375 1.265625 -3.1875 1.265625zm-1.625 -8.9375l3.125 0l0 -1.328125q0 -0.90625 -0.109375 -1.515625q-0.09375 -0.625 -0.421875 -0.9375q-0.3125 -0.328125 -1.0 -0.328125q-0.65625 0 -1.0 0.3125q-0.34375 0.296875 -0.46875 1.015625q-0.125 0.71875 -0.125 2.0l0 0.78125z" fill-rule="nonzero"/><path fill="#f1e1ca" d="m1490.307 908.278l0 -20.515625l5.65625 0q2.078125 0 3.59375 0.453125q1.515625 0.453125 2.359375 1.640625q0.859375 1.171875 0.859375 3.328125q0 1.265625 -0.203125 2.25q-0.203125 0.984375 -0.75 1.71875q-0.546875 0.71875 -1.5625 1.203125l2.8125 9.921875l-4.6875 0l-2.25 -9.1875l-1.296875 0l0 9.1875l-4.53125 0zm4.53125 -11.796875l1.265625 0q0.96875 0 1.5 -0.34375q0.53125 -0.34375 0.75 -0.984375q0.21875 -0.65625 0.21875 -1.5625q0 -1.3125 -0.484375 -2.046875q-0.484375 -0.734375 -1.78125 -0.734375l-1.46875 0l0 5.671875z" fill-rule="nonzero"/><path fill="#f1e1ca" d="m1509.4102 908.48114q-1.71875 0 -2.65625 -0.671875q-0.9375 -0.671875 -1.3125 -1.96875q-0.359375 -1.3125 -0.359375 -3.203125l0 -3.34375q0 -1.953125 0.375 -3.25q0.375 -1.296875 1.328125 -1.953125q0.953125 -0.65625 2.625 -0.65625q1.84375 0 2.71875 0.765625q0.875 0.75 1.15625 2.1875q0.28125 1.4375 0.28125 3.4375l0 1.1875l-5.78125 0l0 2.9375q0 0.890625 0.15625 1.453125q0.171875 0.546875 0.53125 0.8125q0.375 0.265625 0.96875 0.265625q0.59375 0 0.90625 -0.28125q0.328125 -0.296875 0.4375 -0.84375q0.125 -0.546875 0.125 -1.28125l0 -0.890625l2.625 0l0 0.5625q0 2.203125 -0.9375 3.46875q-0.9375 1.265625 -3.1875 1.265625zm-1.625 -8.9375l3.125 0l0 -1.328125q0 -0.90625 -0.109375 -1.515625q-0.09375 -0.625 -0.421875 -0.9375q-0.3125 -0.328125 -1.0 -0.328125q-0.65625 0 -1.0 0.3125q-0.34375 0.296875 -0.46875 1.015625q-0.125 0.71875 -0.125 2.0l0 0.78125zm8.241333 13.546875l0 -19.453125l2.703125 0l0 1.171875q0.484375 -0.5625 1.15625 -0.96875q0.6875 -0.40625 1.625 -0.40625q1.140625 0 1.8125 0.59375q0.671875 0.59375 1.0 1.5q0.328125 0.890625 0.421875 1.828125q0.109375 0.921875 0.109375 1.578125l0 3.546875q0 1.546875 -0.3125 2.921875q-0.296875 1.375 -1.09375 2.234375q-0.796875 0.84375 -2.234375 0.84375q-0.78125 0 -1.390625 -0.390625q-0.609375 -0.390625 -1.09375 -0.90625l0 5.90625l-2.703125 0zm4.65625 -6.734375q0.703125 0 1.0 -0.515625q0.3125 -0.53125 0.390625 -1.40625q0.078125 -0.890625 0.078125 -1.953125l0 -3.546875q0 -0.921875 -0.109375 -1.6875q-0.09375 -0.765625 -0.421875 -1.21875q-0.328125 -0.46875 -1.046875 -0.46875q-0.53125 0 -1.015625 0.234375q-0.46875 0.21875 -0.828125 0.53125l0 9.375q0.375 0.265625 0.859375 0.46875q0.484375 0.1875 1.09375 0.1875zm9.265137 2.125q-0.859375 0 -1.515625 -0.484375q-0.65625 -0.5 -1.046875 -1.265625q-0.375 -0.78125 -0.375 -1.640625q0 -1.375 0.453125 -2.3125q0.453125 -0.9375 1.25 -1.578125q0.8125 -0.640625 1.859375 -1.125q1.046875 -0.484375 2.21875 -0.9375l0 -1.046875q0 -0.875 -0.109375 -1.453125q-0.09375 -0.59375 -0.421875 -0.875q-0.3125 -0.296875 -0.9375 -0.296875q-0.5625 0 -0.90625 0.25q-0.34375 0.25 -0.5 0.71875q-0.140625 0.46875 -0.140625 1.109375l0 0.734375l-2.6875 -0.109375q0.046875 -2.421875 1.109375 -3.578125q1.0625 -1.15625 3.296875 -1.15625q2.171875 0 3.078125 1.1875q0.921875 1.1875 0.921875 3.453125l0 6.6875q0 0.671875 0.03125 1.3125q0.046875 0.625 0.109375 1.171875q0.0625 0.546875 0.109375 1.03125l-2.484375 0q-0.0625 -0.40625 -0.1875 -1.015625q-0.109375 -0.625 -0.15625 -1.140625q-0.25 0.859375 -0.984375 1.609375q-0.71875 0.75 -1.984375 0.75zm1.0625 -2.328125q0.40625 0 0.765625 -0.21875q0.359375 -0.234375 0.625 -0.53125q0.28125 -0.296875 0.390625 -0.46875l0 -4.15625q-0.640625 0.359375 -1.203125 0.71875q-0.546875 0.34375 -0.96875 0.75q-0.421875 0.390625 -0.65625 0.890625q-0.234375 0.484375 -0.234375 1.109375q0 0.890625 0.328125 1.40625q0.328125 0.5 0.953125 0.5zm7.27417 2.125l0 -14.640625l2.703125 0l0 14.640625l-2.703125 0zm0 -16.8125l0 -2.84375l2.703125 0l0 2.84375l-2.703125 0zm5.690674 16.8125l0 -14.640625l2.71875 0l0 2.078125q0.8125 -1.34375 1.609375 -1.796875q0.8125 -0.453125 1.625 -0.453125q0.109375 0 0.1875 0q0.09375 0 0.25 0.015625l0 3.0q-0.3125 -0.125 -0.703125 -0.21875q-0.390625 -0.09375 -0.796875 -0.09375q-0.625 0 -1.15625 0.296875q-0.515625 0.28125 -1.015625 1.125l0 10.6875l-2.71875 0zm18.399292 0.234375q-1.390625 0 -2.40625 -0.59375q-1.0 -0.609375 -1.515625 -1.640625q-0.515625 -1.046875 -0.515625 -2.375q0 -1.953125 0.875 -3.375q0.875 -1.4375 2.109375 -2.5625q-0.453125 -0.90625 -0.96875 -1.828125q-0.515625 -0.921875 -0.890625 -1.921875q-0.359375 -1.0 -0.359375 -2.09375q0 -1.375 0.53125 -2.375q0.53125 -1.015625 1.515625 -1.578125q0.984375 -0.578125 2.328125 -0.578125q1.25 0 2.21875 0.453125q0.96875 0.453125 1.546875 1.3125q0.59375 0.84375 0.59375 2.03125q0 1.34375 -0.625 2.578125q-0.625 1.21875 -1.515625 2.265625q-0.875 1.046875 -1.703125 1.859375l3.078125 4.875q0.28125 -0.53125 0.46875 -1.203125q0.1875 -0.671875 0.328125 -1.4375q0.140625 -0.765625 0.21875 -1.46875l2.6875 0q0 0.984375 -0.296875 2.078125q-0.28125 1.09375 -0.75 2.0625q-0.453125 0.96875 -0.9375 1.65625q0.34375 0.40625 0.875 0.734375q0.53125 0.3125 1.140625 0.3125l0 2.78125q-0.109375 0 -0.203125 0q-0.078125 0 -0.15625 0q-0.734375 -0.03125 -1.328125 -0.34375q-0.578125 -0.3125 -1.046875 -0.765625q-0.46875 -0.46875 -0.890625 -0.859375q-0.6875 0.859375 -1.796875 1.4375q-1.09375 0.5625 -2.609375 0.5625zm0 -2.265625q0.953125 0 1.609375 -0.46875q0.671875 -0.46875 1.140625 -1.046875l-3.140625 -4.84375q-0.609375 0.796875 -0.984375 1.84375q-0.359375 1.046875 -0.359375 2.171875q0 0.578125 0.15625 1.125q0.15625 0.546875 0.53125 0.890625q0.390625 0.328125 1.046875 0.328125zm0.28125 -9.625q0.53125 -0.625 1.0 -1.484375q0.46875 -0.859375 0.765625 -1.828125q0.296875 -0.984375 0.296875 -1.921875q0 -0.734375 -0.453125 -1.15625q-0.453125 -0.421875 -1.1875 -0.421875q-0.90625 0 -1.296875 0.71875q-0.375 0.703125 -0.375 1.59375q0 1.15625 0.390625 2.3125q0.390625 1.15625 0.859375 2.1875z" fill-rule="nonzero"/><path fill="#f1e1ca" d="m1585.0079 908.5749q-2.296875 0 -3.640625 -0.796875q-1.34375 -0.8125 -1.9375 -2.328125q-0.578125 -1.53125 -0.578125 -3.625l0 -7.625q0 -2.125 0.578125 -3.625q0.59375 -1.5 1.9375 -2.296875q1.34375 -0.796875 3.640625 -0.796875q2.328125 0 3.6875 0.796875q1.359375 0.796875 1.9375 2.296875q0.578125 1.5 0.578125 3.625l0 7.625q0 2.09375 -0.578125 3.625q-0.578125 1.515625 -1.9375 2.328125q-1.359375 0.796875 -3.6875 0.796875zm0 -3.203125q0.71875 0 1.046875 -0.359375q0.328125 -0.359375 0.421875 -0.90625q0.109375 -0.5625 0.109375 -1.140625l0 -9.890625q0 -0.609375 -0.109375 -1.140625q-0.09375 -0.546875 -0.421875 -0.90625q-0.328125 -0.359375 -1.046875 -0.359375q-0.65625 0 -0.984375 0.359375q-0.328125 0.359375 -0.4375 0.90625q-0.09375 0.53125 -0.09375 1.140625l0 9.890625q0 0.578125 0.078125 1.140625q0.09375 0.546875 0.40625 0.90625q0.328125 0.359375 1.03125 0.359375z" fill-rule="nonzero"/><path fill="#f1e1ca" d="m1595.7252 908.278l-2.890625 -14.640625l2.734375 0l1.796875 11.78125l1.828125 -11.78125l2.640625 0l-2.796875 14.640625l-3.3125 0zm11.907593 0.203125q-1.71875 0 -2.65625 -0.671875q-0.9375 -0.671875 -1.3125 -1.96875q-0.359375 -1.3125 -0.359375 -3.203125l0 -3.34375q0 -1.953125 0.375 -3.25q0.375 -1.296875 1.328125 -1.953125q0.953125 -0.65625 2.625 -0.65625q1.84375 0 2.71875 0.765625q0.875 0.75 1.15625 2.1875q0.28125 1.4375 0.28125 3.4375l0 1.1875l-5.78125 0l0 2.9375q0 0.890625 0.15625 1.453125q0.171875 0.546875 0.53125 0.8125q0.375 0.265625 0.96875 0.265625q0.59375 0 0.90625 -0.28125q0.328125 -0.296875 0.4375 -0.84375q0.125 -0.546875 0.125 -1.28125l0 -0.890625l2.625 0l0 0.5625q0 2.203125 -0.9375 3.46875q-0.9375 1.265625 -3.1875 1.265625zm-1.625 -8.9375l3.125 0l0 -1.328125q0 -0.90625 -0.109375 -1.515625q-0.09375 -0.625 -0.421875 -0.9375q-0.3125 -0.328125 -1.0 -0.328125q-0.65625 0 -1.0 0.3125q-0.34375 0.296875 -0.46875 1.015625q-0.125 0.71875 -0.125 2.0l0 0.78125zm8.303833 8.734375l0 -14.640625l2.71875 0l0 2.078125q0.8125 -1.34375 1.609375 -1.796875q0.8125 -0.453125 1.625 -0.453125q0.109375 0 0.1875 0q0.09375 0 0.25 0.015625l0 3.0q-0.3125 -0.125 -0.703125 -0.21875q-0.390625 -0.09375 -0.796875 -0.09375q-0.625 0 -1.15625 0.296875q-0.515625 0.28125 -1.015625 1.125l0 10.6875l-2.71875 0zm8.130249 0l0 -20.515625l2.71875 0l0 7.390625q0.734375 -0.703125 1.640625 -1.203125q0.921875 -0.515625 2.03125 -0.515625q0.859375 0 1.328125 0.453125q0.46875 0.453125 0.65625 1.140625q0.1875 0.6875 0.1875 1.390625l0 11.859375l-2.703125 0l0 -11.0625q0 -0.796875 -0.234375 -1.21875q-0.21875 -0.4375 -0.9375 -0.4375q-0.484375 0 -1.0 0.28125q-0.515625 0.28125 -0.96875 0.6875l0 11.75l-2.71875 0zm13.833618 0.203125q-0.859375 0 -1.515625 -0.484375q-0.65625 -0.5 -1.046875 -1.265625q-0.375 -0.78125 -0.375 -1.640625q0 -1.375 0.453125 -2.3125q0.453125 -0.9375 1.25 -1.578125q0.8125 -0.640625 1.859375 -1.125q1.046875 -0.484375 2.21875 -0.9375l0 -1.046875q0 -0.875 -0.109375 -1.453125q-0.09375 -0.59375 -0.421875 -0.875q-0.3125 -0.296875 -0.9375 -0.296875q-0.5625 0 -0.90625 0.25q-0.34375 0.25 -0.5 0.71875q-0.140625 0.46875 -0.140625 1.109375l0 0.734375l-2.6875 -0.109375q0.046875 -2.421875 1.109375 -3.578125q1.0625 -1.15625 3.296875 -1.15625q2.171875 0 3.078125 1.1875q0.921875 1.1875 0.921875 3.453125l0 6.6875q0 0.671875 0.03125 1.3125q0.046875 0.625 0.109375 1.171875q0.0625 0.546875 0.109375 1.03125l-2.484375 0q-0.0625 -0.40625 -0.1875 -1.015625q-0.109375 -0.625 -0.15625 -1.140625q-0.25 0.859375 -0.984375 1.609375q-0.71875 0.75 -1.984375 0.75zm1.0625 -2.328125q0.40625 0 0.765625 -0.21875q0.359375 -0.234375 0.625 -0.53125q0.28125 -0.296875 0.390625 -0.46875l0 -4.15625q-0.640625 0.359375 -1.203125 0.71875q-0.546875 0.34375 -0.96875 0.75q-0.421875 0.390625 -0.65625 0.890625q-0.234375 0.484375 -0.234375 1.109375q0 0.890625 0.328125 1.40625q0.328125 0.5 0.953125 0.5zm9.196045 2.328125q-0.859375 0 -1.34375 -0.453125q-0.484375 -0.453125 -0.671875 -1.140625q-0.1875 -0.6875 -0.1875 -1.390625l0 -11.859375l2.703125 0l0 11.046875q0 0.78125 0.234375 1.234375q0.234375 0.4375 0.9375 0.4375q0.453125 0 0.9375 -0.265625q0.5 -0.265625 0.96875 -0.65625l0 -11.796875l2.703125 0l0 14.640625l-2.703125 0l0 -1.4375q-0.71875 0.671875 -1.625 1.15625q-0.890625 0.484375 -1.953125 0.484375zm9.300659 -0.203125l0 -20.515625l2.703125 0l0 20.515625l-2.703125 0z" fill-rule="nonzero"/><path fill="#f7ebdb" d="m1327.018 141.33684c-20.53711 -0.7352905 -40.96582 -1.3691559 -61.50293 -2.1044312l0 5.79097c5.3702393 0.31440735 10.7404785 0.63386536 16.013184 0.9482727c16.848389 1.0547485 33.6969 2.003006 50.54541 2.9512634c4.6434326 0.207901 9.167358 0.52230835 13.799927 0.73527527c1.3669434 0.63386536 2.8424072 1.1561737 4.317871 1.683548c3.7972412 1.3691406 8.321167 2.317398 12.432983 3.1591797c-0.21691895 0.10649109 -0.3145752 0.21296692 -0.5316162 0.319458l-0.3145752 0.20791626l-0.10852051 0.319458c-0.52075195 0.8417816 -0.83532715 2.2109222 -0.83532715 3.1591797c0 1.0496826 0.41223145 2.3174133 0.83532715 3.1591797l0.21704102 0.3143921l0.3145752 0.21298218c0.10852051 0.10140991 0.3145752 0.207901 0.4230957 0.3143921c-0.3145752 1.0547485 -0.3145752 2.2109222 -0.21691895 3.2656708c0.3145752 3.1591797 2.744751 6.9471436 6.324951 6.5262604c1.0523682 -0.10142517 1.9962158 -0.62879944 2.7338867 -1.2626648c0.8461914 0.52737427 1.8985596 0.8417816 2.9509277 0.63386536c1.3669434 -0.10649109 2.527832 -0.94825745 3.265503 -2.003006c2.310913 0.52737427 4.9471436 1.0547485 7.268921 1.0547485c0.52075195 0 1.1607666 0 1.6815186 -0.10649109c5.055664 -0.52737427 8.744385 -4.107437 9.05896 -9.269623c0 -0.5222931 0 -0.94825745 0 -1.4705658c5.1640625 0.7352905 10.7404785 1.4705658 16.013062 1.683548c0 0.207901 0 0.42088318 0 0.63386536c0.31469727 2.9461975 2.527832 6.5262604 5.8911133 6.105377c0.9547119 -0.10649109 1.8985596 -0.52737427 2.52771 -1.1561737c0.8463135 0.52737427 1.7901611 0.7352905 2.744873 0.62879944c3.3631592 -0.42088318 4.838623 -4.3153534 4.524048 -7.266617c0 -0.10649109 0 -0.10649109 0 -0.207901c7.6918945 -0.63386536 15.796143 -0.42089844 23.488037 0c2.4193115 0.10140991 4.838623 0.207901 7.268799 0.207901l0.31469727 3.686554l4.838623 -0.3143921c0.10852051 0.207901 0.21691895 0.42088318 0.21691895 0.6287842c0 0.10649109 0 0.21298218 0 0.31947327l0 0.84176636c0 0.10649109 0 0.207901 0 0.42088318c-2.2131348 0.42088318 -3.1569824 2.9512787 -2.9509277 5.0556946c0.20617676 2.1044312 1.7901611 4.5283203 4.2094727 4.213928c0.64001465 -0.10649109 1.1607666 -0.319458 1.5839844 -0.63386536c0.52075195 0.21298218 1.0522461 0.42088318 1.6815186 0.31440735c2.4301758 -0.20791626 3.3740234 -2.9462128 3.1571045 -5.05571c-0.20617676 -1.6835327 -1.2585449 -3.6814728 -2.9400635 -4.107437c0 -0.10140991 0 -0.94317627 0 -0.94317627c0 -0.21298218 0 -0.31947327 -0.10852051 -0.52737427l0.3145752 -0.8417816l5.9018555 -0.7403412l-0.3145752 -2.6318054c7.05188 -0.42088318 18.42163 -1.683548 23.379639 -6.4248505c1.4754639 -1.4756317 2.4193115 -3.2656555 2.4193115 -5.3700867c0 -7.586075 -11.272095 -17.590988 -16.642456 -22.4337c-0.3145752 -0.31439972 -0.7376709 -0.63386536 -1.0522461 -0.9482651c-6.6396484 -6.110443 -16.533936 -7.9004745 -25.278198 -7.9004745l-100.89563 0c-1.6816406 0 -3.265625 0 -4.9471436 0.10649109l-12.009888 -6.7392426l-20.331055 -40.866455c-1.0523682 -2.1044312 -3.2546387 -3.4735718 -5.576416 -3.4735718l-6.10791 0l8.2126465 54.765816c-2.8424072 0.4208908 -5.793335 0.9482651 -8.635742 1.5821228l-0.62927246 0.10142517l-0.3145752 0.6338577c-0.31469727 0.52737427 -0.5316162 1.0547485 -0.73779297 1.5770569c-3.0594482 -0.31439972 -6.010376 -0.6287918 -9.058838 -0.9431915c-5.793457 -0.63386536 -11.586792 -1.2677231 -17.380127 -1.8965225c-2.9509277 -0.31946564 -6.108032 -0.7403488 -9.05896 -0.94825745c-1.2584229 -0.10649109 -2.8424072 0.20790863 -3.786255 1.049675l0 3.1642532l0.62927246 0.10141754c13.062134 1.7900314 26.221924 3.5800629 39.28418 5.375168c0.10852051 0.10140991 0.10852051 0.207901 0.20617676 0.3143921c0 0 0.32543945 0.3143921 0.32543945 0.3143921l0.3145752 0.21298218c6.845703 3.3670807 13.691406 6.5262604 20.634766 9.791931z" fill-rule="evenodd"/><path fill="#6d7172" d="m1364.3098 164.82724c0.2052002 -0.4215088 0.42138672 -0.73887634 0.7347412 -0.9471588c0 0 -0.1081543 -0.104141235 -0.1081543 -0.104141235c-0.2052002 0.3124237 -0.42138672 0.7339325 -0.6265869 1.0513l0 0zm-98.89856 -20.009384l0 -1.1604004c12.9552 0.84303284 39.600464 2.529068 66.24573 3.8977509c21.901733 1.1603851 37.49341 1.7901764 48.65503 2.2116852c-0.09716797 -0.31736755 -0.3133545 -0.52565 -0.42138672 -0.73887634l-8.417114 -0.3124237c-11.172363 -0.4215088 -22.442017 -0.9521179 -33.603638 -1.477768l-16.747925 -0.8430176c-5.5753174 -0.31240845 -11.161499 -0.52565 -16.747803 -0.8430176l-16.736938 -0.9471588c-5.5861816 -0.3124237 -11.172485 -0.62979126 -16.747803 -1.0513l16.84497 0.629776l16.747803 0.7388916l33.60376 1.4728088l33.387573 1.5819092l16.845093 0.8430176c2.8416748 0.104141235 5.5861816 0.20828247 8.427856 0.31736755c1.3723145 0 2.8417969 0 4.2139893 0c1.3614502 0 2.8417969 0 4.2139893 -0.10908508c-2.7445068 0.31736755 -5.5861816 0.31736755 -8.4279785 0.31736755c-2.8416748 0 -5.5861816 0 -8.427856 -0.104141235l-2.949829 -0.104141235c0.10803223 0.20828247 0.21606445 0.52565 0.3133545 0.7339325c15.591675 0.4215088 20.119019 0 21.069824 -0.31736755c-0.10803223 -2.7373505 -1.9989014 -4.106018 -5.791504 -4.106018c-1.0588379 0 -3.2630615 0 -6.1156006 0c-9.368042 0 -26.645264 0.104141235 -31.702026 0c-4.8406982 -0.104141235 -66.24573 -2.2117004 -97.623535 -3.2630005l0 -1.0562439c17.795898 0.6347351 45.391968 1.5818939 66.77515 2.3207855c-12.328613 -5.583786 -25.391846 -11.693222 -25.597168 -11.797363l-0.10803223 -0.10412598l-0.10803223 -0.10910034c0 0 -0.20532227 -0.20828247 -0.42138672 -0.62979126c-16.110352 -2.2116852 -39.49243 -5.3705444 -39.805786 -5.4746857l-0.63757324 -0.10909271l0.10803223 -0.62979126c0 -0.21323395 0.4215088 -1.6860428 3.479248 -1.477768c1.685669 0.10910034 21.480469 2.216652 36.337402 3.793602c0.09729004 -0.62978363 0.42138672 -1.3686752 0.84277344 -2.1075592l0.09729004 -0.20827484l0.21606445 0c0.10803223 0 3.7926025 -0.8430176 9.692139 -1.790184l-8.222656 -54.55842l4.9594727 0c1.9990234 0 3.7818604 1.1603928 4.732666 2.9505768l20.540405 41.17916l12.533813 7.056595c1.6855469 0 3.4683838 -0.104141235 5.1540527 -0.104141235l100.89746 0c13.484741 0 20.75647 4.106018 24.538208 7.582245c0.32421875 0.31737518 0.63757324 0.63474274 1.05896 0.9471588c5.262085 4.7407684 16.218384 14.63884 16.218384 21.695435c0 1.6860352 -0.7347412 3.2679443 -2.1070557 4.636612c-3.9978027 3.8977509 -13.376587 5.583786 -23.803467 6.2135773l0.3133545 2.6332092l-5.467407 0.629776l-0.7454834 1.899292c0.10803223 0.10412598 0.21606445 0.20826721 0.21606445 0.31240845l0 0.8430176c0 0.21324158 -0.21606445 0.3173828 -0.3133545 0.3173828l-0.32409668 0l0 0.8430176c0.21606445 -0.104141235 0.42138672 -0.104141235 0.6374512 -0.20828247c1.4694824 -0.21322632 2.8417969 1.3686829 3.046997 3.2630005c0.21618652 2.003418 -0.8319092 3.684494 -2.2042236 3.8977356c-0.6374512 0.104141235 -1.2641602 -0.21324158 -1.7935791 -0.63475037c-0.42138672 0.53060913 -0.95080566 0.9521179 -1.5775146 0.9521179c-1.4803467 0.20828247 -2.8417969 -1.3736267 -3.0578613 -3.2679443c-0.20532227 -1.9984589 0.7347412 -3.6845093 2.215088 -3.8977356c0.42138672 0 0.84277344 0 1.2641602 0.21322632l0 -1.2645264l-0.21618652 0c-0.2052002 0 -0.31323242 -0.21324158 -0.31323242 -0.3173828l0 -0.8430176c0 -0.104141235 0.10803223 -0.20826721 0.10803223 -0.31240845c-0.21618652 -0.63475037 -0.529541 -1.1604004 -0.7347412 -1.6860504l-4.5273438 0.3124237l-0.32421875 -3.6845093c-2.8416748 0 -5.5753174 -0.104141235 -8.211792 -0.20828247c-13.268555 -0.6347351 -20.119019 -0.31736755 -24.851562 0.20828247c0.09716797 0.4215088 0.20532227 0.8430176 0.20532227 1.2645264c0.3133545 3.1588593 -1.2642822 5.8962097 -3.576538 6.109436c-0.95080566 0.104141235 -1.9989014 -0.31736755 -2.7445068 -0.9471588c-0.6265869 0.8430176 -1.4694824 1.4728088 -2.5283203 1.5769501c-2.3122559 0.21322632 -4.4193115 -2.1075592 -4.8406982 -5.2664185c-0.10803223 -0.52565 -0.10803223 -1.0512848 0 -1.5769348c-3.7926025 -0.10910034 -10.534912 -0.84303284 -18.325317 -1.899292c0.10803223 0.84303284 0.20532227 1.6860504 0.10803223 2.6332092c-0.21606445 4.532486 -3.479248 7.795471 -8.114624 8.321121c-0.52941895 0.104141235 -1.0480957 0.104141235 -1.5775146 0.104141235c-1.9016113 0 -4.105835 -0.31240845 -7.7904053 -1.155426c-0.74560547 1.155426 -1.6855469 1.9984589 -2.949829 2.107544c-1.0588379 0.104141235 -2.1069336 -0.31736755 -2.949707 -1.0562592c-0.63757324 0.9471741 -1.5775146 1.5819092 -2.7445068 1.6860504c-2.5284424 0.31736755 -4.8406982 -2.2117004 -5.1540527 -5.583786c-0.10803223 -1.2595673 0 -2.524109 0.42138672 -3.580368c-0.6374512 -0.4215088 -0.95080566 -0.73391724 -1.0588379 -0.73391724l-0.09729004 -0.10910034l-0.10803223 -0.104141235c0 -0.10412598 -0.7347412 -1.4728088 -0.7347412 -2.7373352c0 -1.2645416 0.7347412 -2.529068 0.7347412 -2.6332092l0.10803223 -0.104141235l0.09729004 -0.10908508c0.10803223 -0.104141235 1.1561279 -0.83807373 2.6364746 -1.6810913c-6.526245 -1.2645416 -11.907227 -2.6332092 -14.846191 -3.6894684c-1.1668701 -0.4215088 -2.7445068 -1.0513 -4.4300537 -1.7901764c-4.311157 -0.20828247 -8.946533 -0.4215088 -13.895264 -0.7339325c-26.547974 -1.477768 -53.30127 -3.054718 -66.46179 -3.8977356l0 0zm212.42712 -7.69133c3.1658936 -0.42152405 6.320923 -1.0513 9.378784 -1.8943329c-3.1658936 0.62979126 -6.320923 1.0513 -9.476074 1.3686829c-3.1658936 0.31736755 -6.320923 0.52565 -9.486816 0.52565c-1.5775146 0 -3.1550293 0.10908508 -4.732544 0.10908508c-0.8428955 0 -1.5883789 0.104141235 -2.4311523 0.104141235l-2.3122559 0.20828247c-0.3133545 0 -0.626709 -0.104141235 -0.8428955 -0.4215088c-0.2052002 -0.20828247 -0.3133545 -0.52565 -0.3133545 -0.9471741c0 -0.73887634 0.1081543 -1.5769348 0.20532227 -2.3158264c0.10803223 -0.73887634 0.32421875 -1.5819092 0.63757324 -2.3158264c0.3133545 -0.7388916 0.6265869 -1.477768 1.0480957 -2.1075592c-1.0480957 1.2645264 -1.5776367 2.7373352 -1.9990234 4.3192444c-0.2052002 0.7339325 -0.3133545 1.5769501 -0.3133545 2.4199677c0 0.42152405 0.1081543 0.9471741 0.42138672 1.2645416c0.3133545 0.31736755 0.7347412 0.62979126 1.2642822 0.62979126c0.2052002 0 0.42138672 0 0.626709 0l0.6374512 0l1.1561279 -0.104141235c0.84277344 0 1.5775146 -0.104141235 2.420288 -0.104141235c1.5776367 -0.104141235 3.1658936 -0.104141235 4.743408 -0.104141235c2.949829 0 6.2130127 -0.21322632 9.368042 -0.6347351l0 0zm-130.07117 -5.3705597c-0.626709 -0.104141235 -1.2641602 0.7388916 -1.4694824 2.003418c-0.21606445 1.2595825 0 2.3158417 0.626709 2.4199677c0.6374512 0.104141235 1.2641602 -0.73887634 1.4803467 -1.9984589c0.2052002 -1.2645264 -0.1081543 -2.3207855 -0.63757324 -2.4249268l0 0zm4.4300537 0.104141235c-0.6374512 -0.104141235 -1.2641602 0.7388916 -1.4802246 2.003418c-0.20532227 1.1554413 0 2.3158264 0.6374512 2.4199677c0.52941895 0.10910034 1.2641602 -0.73391724 1.4694824 -1.9984589c0.21618652 -1.2645264 0 -2.3158264 -0.626709 -2.4249268l0 0zm4.5273438 0c-0.6374512 -0.104141235 -1.2641602 0.7388916 -1.4802246 2.003418c-0.20532227 1.1554413 0 2.3158264 0.6374512 2.4199677c0.626709 0.10910034 1.2641602 -0.73391724 1.4694824 -1.9984589c0.21606445 -1.2645264 -0.09729004 -2.3158264 -0.626709 -2.4249268l0 0zm4.5273438 0.10910034c-0.52941895 -0.10910034 -1.2641602 0.73391724 -1.4694824 1.9984589c-0.21606445 1.1604004 0 2.3158264 0.626709 2.4249268c0.6374512 0.104141235 1.2641602 -0.7388916 1.4802246 -2.003418c0.20532227 -1.2645264 0 -2.3158264 -0.6374512 -2.4199677l0 0zm4.635376 0c-0.63757324 -0.10910034 -1.2641602 0.73391724 -1.4803467 1.9984589c-0.20532227 1.1604004 0 2.3158264 0.63757324 2.4249268c0.52941895 0.104141235 1.2641602 -0.7388916 1.4694824 -2.003418c0.21606445 -1.2645264 0 -2.3158264 -0.626709 -2.4199677l0 0zm4.743408 0c-0.52941895 -0.10910034 -1.2641602 0.73391724 -1.4803467 1.9984589c-0.2052002 1.1604004 0 2.3158264 0.63757324 2.4249268c0.5185547 0.104141235 1.2641602 -0.7388916 1.4694824 -2.003418c0.21606445 -1.1604004 -0.10803223 -2.2117004 -0.626709 -2.4199677l0 0zm4.732544 0.104141235c-0.6265869 -0.104141235 -1.2641602 0.73391724 -1.4694824 1.9984589c-0.21606445 1.2645264 0 2.3207855 0.626709 2.4249268c0.63757324 0.104141235 1.2641602 -0.7388916 1.4803467 -2.003418c0.20532227 -1.2645416 -0.10803223 -2.3158417 -0.63757324 -2.4199677l0 0zm4.743408 0c-0.6374512 -0.104141235 -1.2641602 0.73391724 -1.4802246 1.9984589c-0.20532227 1.1603851 0 2.3207855 0.6374512 2.4249268c0.626709 0.104141235 1.2642822 -0.7388916 1.4694824 -2.003418c0.32421875 -1.1554413 0 -2.3158417 -0.626709 -2.4199677l0 0zm4.9487305 0.10412598c-0.52941895 -0.10412598 -1.2641602 0.7388916 -1.4802246 2.003418c-0.20532227 1.1554413 0 2.3158417 0.6374512 2.419983c0.626709 0.10412598 1.2641602 -0.7388916 1.4694824 -1.9984589c0.21606445 -1.2645416 -0.09729004 -2.3208008 -0.626709 -2.424942l0 0zm4.9487305 0c-0.626709 -0.10412598 -1.2641602 0.7388916 -1.4694824 2.003418c-0.21606445 1.1554413 0 2.3158417 0.626709 2.419983c0.6374512 0.10412598 1.2641602 -0.7388916 1.4802246 -1.9984589c0.20532227 -1.2645416 -0.10803223 -2.3208008 -0.6374512 -2.424942l0 0zm4.9487305 0.104141235c-0.626709 -0.104141235 -1.2641602 0.7388916 -1.4694824 2.003418c-0.21606445 1.2645416 0 2.3158417 0.626709 2.4199677c0.6374512 0.10910034 1.2641602 -0.73391724 1.4802246 -1.9984589c0.20532227 -1.2645264 0 -2.3158264 -0.6374512 -2.4249268l0 0zm5.0567627 0c-0.626709 -0.104141235 -1.2641602 0.7388916 -1.4694824 2.003418c-0.21606445 1.1554413 0 2.3158417 0.626709 2.4199677c0.6374512 0.10910034 1.2641602 -0.73391724 1.4802246 -1.9984589c0.20532227 -1.2645264 0 -2.3158264 -0.6374512 -2.4249268l0 0zm5.164795 0c-0.6374512 -0.104141235 -1.2641602 0.7388916 -1.4803467 2.003418c-0.2052002 1.1554413 0 2.3158417 0.63757324 2.4199677c0.626709 0.10910034 1.2641602 -0.73391724 1.4694824 -1.9984589c0.21606445 -1.1603851 -0.10803223 -2.2116852 -0.626709 -2.4249268l0 0zm5.1540527 0.10910034c-0.626709 -0.10910034 -1.2642822 0.7339325 -1.4694824 1.9984589c-0.21618652 1.1604004 0 2.3158264 0.6265869 2.4249268c0.63757324 0.104141235 1.2642822 -0.73887634 1.4803467 -2.003418c0.20532227 -1.2645264 -0.10803223 -2.3158264 -0.6374512 -2.4199677l0 0zm5.272827 0c-0.6374512 -0.10910034 -1.2641602 0.7339325 -1.4803467 1.9984589c-0.2052002 1.1604004 0 2.3158264 0.63757324 2.4249268c0.626709 0.104141235 1.2641602 -0.73887634 1.4694824 -2.003418c0.21606445 -1.1604004 -0.10803223 -2.2116852 -0.626709 -2.4199677l0 0zm5.262085 0.104141235c-0.626709 -0.104141235 -1.2642822 0.73391724 -1.4694824 1.9984589c-0.21618652 1.2645264 0 2.3207855 0.626709 2.4249268c0.52941895 0.104141235 1.2641602 -0.7388916 1.4694824 -2.003418c0.21606445 -1.2645416 0 -2.3158264 -0.626709 -2.4199677l0 0zm5.370117 0.104141235c-0.626709 -0.104141235 -1.2642822 0.73887634 -1.4694824 2.003418c-0.21618652 1.155426 0 2.3158264 0.6265869 2.4199677c0.63757324 0.104141235 1.2642822 -0.7388916 1.4803467 -2.003418c0.20532227 -1.2595825 -0.10803223 -2.3158417 -0.6374512 -2.4199677l0 0zm5.370117 0c-0.626709 -0.104141235 -1.2642822 0.73887634 -1.4694824 2.003418c-0.21618652 1.155426 0 2.3158264 0.6265869 2.4199677c0.529541 0.104141235 1.2642822 -0.7388916 1.4803467 -2.003418c0.3133545 -1.1554413 0 -2.3158417 -0.6374512 -2.4199677l0 0zm-62.56128 33.70105c-0.09716797 0 -0.09716797 -0.104141235 -0.20532227 -0.104141235c0 0.104141235 0 0.21324158 0 0.3173828c0.1081543 0.629776 0 1.2645264 -0.21606445 1.7901764c0.32421875 -0.52565 0.42138672 -1.2645264 0.42138672 -2.003418l0 0zm2.6364746 1.3736267c-0.10803223 0 -0.10803223 -0.10908508 -0.20532227 -0.10908508c-0.10803223 0.8430176 -0.32409668 1.7901764 -0.74560547 2.5290527c0.4215088 -0.629776 0.74560547 -1.5818939 0.95092773 -2.4199677l0 0zm4.743408 1.6810913c0 0 -0.10803223 0.10910034 -0.10803223 0.10910034c0 0 0.10803223 -0.10910034 0.10803223 -0.10910034l0 0zm41.599365 -6.635086c0 -0.4215088 -0.21606445 -0.8430176 -0.3133545 -1.2645264c-0.10803223 0 -0.21606445 0 -0.32409668 0c0.32409668 0.4215088 0.42138672 1.0562592 0.52941895 1.5819092c0.10803223 0.629776 0 1.1603851 -0.20532227 1.6860352c0.20532227 -0.52565 0.3133545 -1.2645264 0.3133545 -2.003418l0 0zm2.4204102 0.9471588c0.10803223 -0.8380585 0 -1.681076 -0.20532227 -2.524109c-0.10803223 0 -0.21606445 0 -0.32421875 0c0.21618652 0.84303284 0.32421875 1.6860504 0.32421875 2.419983c0 0.9471588 -0.32421875 1.8992767 -0.74560547 2.7373352c0.63757324 -0.73391724 0.84277344 -1.6810913 0.95092773 -2.6332092l0 0zm5.261963 -0.629776c0.1081543 -0.84303284 0 -1.7901917 -0.2052002 -2.6332092c-0.1081543 0 -0.21618652 0 -0.3133545 0c0.2052002 0.8430176 0.3133545 1.6860504 0.3133545 2.529068c0 0.9471588 -0.3133545 1.8943176 -0.7347412 2.7373352c0.5185547 -0.629776 0.84277344 -1.5818939 0.9399414 -2.633194l0 0zm40.130005 1.3686676l0.3133545 -0.62979126l-0.51867676 0c0 0.20828247 0.09729004 0.4215088 0.20532227 0.62979126l0 0zm-0.10803223 4.527527c0.10803223 0.10910034 0.10803223 0.10910034 0.21606445 0.21322632c0 -0.8430176 0 -1.7901764 0 -2.633194c0.52941895 -1.3686829 1.0480957 -2.7373505 1.5775146 -4.106018c0.21606445 -0.63475037 0.42138672 -1.2645416 0.7347412 -1.8992767c-0.09716797 0 -0.09716797 0 -0.20532227 0c-0.21606445 0.6347351 -0.52941895 1.1603851 -0.7347412 1.7901764c-0.52941895 1.3686676 -1.0588379 2.7423096 -1.5882568 4.110977c0 0.8430176 0 1.6860504 0 2.524109l0 0zm-1.2642822 -0.52565c-0.3133545 -0.104141235 -0.6265869 -0.104141235 -0.9399414 -0.104141235c0.6265869 0 1.1561279 0.20828247 1.6855469 0.62979126c0.42138672 0.4215088 0.7347412 0.9521179 0.9400635 1.477768c0.21606445 0.52565 0.32409668 1.1554413 0.21606445 1.7901764c0 0.62979126 -0.21606445 1.1554413 -0.42138672 1.7901917c0.3133545 -0.52565 0.52941895 -1.1604004 0.626709 -1.7901917c0.10803223 -0.6347351 0 -1.2645264 -0.20532227 -1.8943176c-0.21606445 -0.63475037 -0.52941895 -1.1604004 -1.0588379 -1.5819092c-0.20532227 0 -0.51867676 -0.21322632 -0.8428955 -0.31736755l0 0zm-1.1561279 1.5819092c-0.52941895 0.10412598 -0.95080566 0.4215088 -1.0480957 1.0513c0.20532227 -0.42152405 0.51867676 -0.7339325 1.0480957 -0.84303284c0.7347412 -0.104141235 1.4803467 0.7388916 1.5775146 1.7901917c0 0.31736755 0 0.73887634 -0.09716797 1.0562592c0.20532227 -0.3173828 0.20532227 -0.84303284 0.20532227 -1.2645416c-0.20532227 -1.0562592 -0.95092773 -1.8943176 -1.685669 -1.7901764l0 0zm-1.0480957 2.2116852c0.09729004 0.84303284 0.626709 1.4728088 1.2642822 1.3686829c0.42138672 0 0.7347412 -0.42152405 0.84277344 -0.84303284c-0.21618652 0.3173828 -0.42138672 0.62979126 -0.74560547 0.62979126c-0.626709 0.10910034 -1.1561279 -0.52565 -1.2641602 -1.3686676c0 -0.3124237 0 -0.52565 0.10803223 -0.84303284c-0.20532227 0.3173828 -0.3133545 0.63475037 -0.20532227 1.0562592l0 0zm7.1638184 -2.003418c0.20532227 0.52565 0.3133545 1.1604004 0.20532227 1.7901917c0 0.6347351 -0.20532227 1.1603851 -0.4215088 1.7901764c0.3133545 -0.52565 0.529541 -1.1554413 0.626709 -1.7901764c0.10803223 -0.62979126 0 -1.2645416 -0.2052002 -1.8943329c-0.20532227 -0.629776 -0.529541 -1.1603851 -1.0480957 -1.5818939c-0.21618652 -0.20828247 -0.529541 -0.41654968 -0.8428955 -0.52565c-0.32409668 -0.104141235 -0.6374512 -0.104141235 -0.95080566 -0.104141235c0.626709 0 1.1561279 0.21324158 1.6855469 0.62979126c0.529541 0.53060913 0.8428955 1.0562592 0.95092773 1.6860352l0 0zm-106.483765 -10.111298c0.626709 0.4215088 1.3723145 0.73887634 2.1070557 1.1603851c-0.1081543 -0.73887634 -0.1081543 -1.4728088 0 -2.2116852c0.10803223 -1.2645416 0.42138672 -2.3158417 0.84277344 -3.2630005c-1.2641602 0.7339325 -2.215088 1.3686676 -2.5284424 1.6810913c-0.10803223 0.31736755 -0.52941895 1.1603851 -0.52941895 2.003418c0 0.104141235 0.10803223 0.31736755 0.10803223 0.62979126l0 0zm1.3723145 6.744171c0.09716797 1.3686676 1.1561279 2.524109 2.2042236 2.3158264c0.6374512 -0.10412598 1.1668701 -0.6347351 1.4802246 -1.3686676c-0.3133545 0.62979126 -0.7347412 0.9471588 -1.3721924 1.0513c-1.0480957 0.104141235 -1.9989014 -0.9471588 -2.215088 -2.3158264c-0.09716797 -0.52565 0 -0.9471588 0.10803223 -1.3686829c-0.10803223 0.42152405 -0.2052002 1.0513 -0.2052002 1.6860504l0 0zm18.746704 0.8430176c-0.10803223 -0.10908508 -0.21606445 -0.21322632 -0.21606445 -0.31736755c0 0 0 0 -0.10803223 -0.104141235c-0.09729004 -0.10910034 -0.09729004 -0.21322632 -0.20532227 -0.31736755c-1.1561279 -1.6860504 -1.685669 -3.7936096 -1.4694824 -6.109436c0.20532227 -2.2117004 1.0480957 -4.106018 2.2042236 -5.4746857c0.10803223 -0.10910034 0.3133545 -0.31736755 0.42138672 -0.4215088c0.10803223 -0.10910034 0.21606445 -0.21324158 0.3133545 -0.31736755c0.7454834 -0.52565 1.3721924 -0.9471741 2.2149658 -1.1604004c-0.10803223 0 -0.10803223 0 -0.2052002 0c-0.1081543 0 -2.5284424 -0.3124237 -4.105957 0.4215088c-0.52941895 0.31736755 -1.05896 0.7388916 -1.4803467 1.2645264c-1.2641602 1.4728241 -2.1069336 3.580368 -2.3122559 5.7920685c-0.10803223 1.6860352 0.09729004 3.2679443 0.626709 4.636627c0.84277344 0.10412598 1.5775146 0.20826721 2.215088 0.31240845c0.84277344 1.5819092 2.1069336 3.054718 3.6844482 3.6894684c0.42138672 0 0.84277344 0 1.2641602 0c-1.0588379 -0.3173828 -1.9989014 -0.9471741 -2.8416748 -1.8943329l0 0zm32.750122 -2.4249268c-0.95092773 0.104141235 -1.8908691 -0.8430176 -1.9990234 -2.2116852c0 -0.42152405 0 -0.9471588 0.1081543 -1.2645416c-0.21618652 0.4215088 -0.32421875 0.9471588 -0.21618652 1.5819092c0.10803223 1.3686676 1.05896 2.3158264 1.9990234 2.2117004c0.6374512 -0.104141235 1.1668701 -0.52565 1.3721924 -1.2645416c-0.3133545 0.52565 -0.7347412 0.8430176 -1.2641602 0.9471588l0 0zm30.232422 -20.539993c-0.32409668 -2.2116852 -0.32409668 -5.792053 -0.21606445 -9.898071c0.21606445 -4.740753 2.32312 -7.6863785 3.2631836 -8.742638c0.10803223 -0.104133606 0.10803223 -0.31736755 0.10803223 -0.4215088c-0.10803223 -0.104141235 -0.20532227 -0.20827484 -0.42138672 -0.20827484l-3.479248 0c-0.7347412 0 -1.4694824 0.31241608 -1.9989014 0.8430252c-0.7347412 0.8430176 -3.1551514 3.788643 -3.3712158 8.633537c-0.20532227 4.110977 -0.09729004 7.582245 0.10803223 9.79393c0.10803223 0.63475037 0.626709 1.1604004 1.3723145 1.1604004l3.7924805 0c0.3133545 0 0.51867676 -0.104141235 0.7347412 -0.31736755c0.10803223 -0.3124237 0.20532227 -0.62979126 0.10803223 -0.84303284l0 0zm-61.296997 16.538116c0.09729004 -0.73887634 -0.32409668 -1.3686676 -0.95080566 -1.4728088c-0.10803223 0 -0.21606445 0 -0.3133545 0c-0.10803223 0.4215088 -0.10803223 0.8430176 -0.21606445 1.2645416c0 0.41654968 0 0.9471588 0 1.3686676c0.10803223 0 0.21606445 0.104141235 0.3133545 0.104141235c0.52941895 0 1.0588379 -0.52565 1.1668701 -1.2645416l0 0zm3.3712158 -5.053177c1.0480957 1.3686829 1.6855469 3.3671417 1.4694824 5.4746857c-0.20532227 2.7373505 -1.6855469 5.053177 -3.576416 6.005295c2.2042236 -0.53060913 3.8897705 -2.8464355 4.105835 -5.7970123c0.20532227 -2.3158264 -0.6374512 -4.527527 -1.9989014 -5.682968l0 0zm-0.52941895 12.635422c3.1550293 0 5.6834717 -3.1588593 5.6834717 -7.160736c0 -0.8430176 -0.1081543 -1.6860352 -0.3133545 -2.529068c-0.21618652 -0.8430176 -0.529541 -1.5769348 -1.05896 -2.3158264c-0.41052246 -0.73887634 -1.0480957 -1.2645264 -1.7828369 -1.7901764c-0.7347412 -0.4215088 -1.5775146 -0.7388916 -2.420288 -0.7388916c-0.84277344 0 -1.6855469 0.21324158 -2.4311523 0.63475037c-0.7347412 0.4215088 -1.3614502 1.0513 -1.7828369 1.7901764c-0.42138672 0.7339325 -0.7454834 1.4728088 -0.95080566 2.3158417c-0.21618652 0.8430176 -0.21618652 1.6860352 -0.21618652 2.529068c0 -0.84303284 0.1081543 -1.6860504 0.4215088 -2.424942c0.21606445 -0.8430176 0.52941895 -1.5769348 0.95080566 -2.2116852c0.42138672 -0.62979126 1.0588379 -1.2645416 1.6855469 -1.6860504c0.63757324 -0.4215088 1.4803467 -0.629776 2.32312 -0.629776c0.51867676 0 1.1561279 0.10412598 1.6855469 0.4215088c2.1070557 1.3686676 3.3603516 4.001877 3.1551514 7.056595c-0.3133545 3.8977356 -3.0578613 6.8433533 -6.2130127 6.5309296c0.4215088 0.104141235 0.8428955 0.20828247 1.2642822 0.20828247l0 0zm-6.7424316 -19.801102c0.7347412 1.2645264 1.15625 3.158844 1.2642822 4.001877c1.2641602 -0.4215088 2.7336426 -0.4215088 3.576416 -0.3124237c-0.20532227 -0.73887634 -0.51867676 -2.003418 -1.1561279 -3.580368l-3.6845703 -0.10908508l0 0zm-39.49243 -7.4781036l-0.10803223 -0.62979126c-0.20532227 -1.7901764 -0.42138672 -3.8977356 -0.3133545 -7.2698364c0.10803223 -3.4762268 1.3723145 -6.1044693 2.5284424 -7.686371c0.09716797 -0.21323395 0.09716797 -0.42151642 0 -0.52565c0 -0.104141235 -0.10803223 -0.104141235 -0.21606445 -0.104141235l-2.312378 0c-0.52941895 0 -1.0588379 0.31241608 -1.3721924 0.73392487c-0.95080566 1.264534 -2.420288 4.0018845 -2.5284424 7.6913376c-0.10803223 3.3671417 0.1081543 5.4746857 0.3133545 7.160736l0.1081543 0.62979126c0.10803223 0.6347351 0.42138672 1.0562592 0.84277344 1.0562592l2.5283203 0c0.21606445 0 0.3133545 -0.10910034 0.42138672 -0.21324158c0.10803223 -0.31736755 0.21618652 -0.52565 0.10803223 -0.8430176l0 0zm72.145386 10.007172c0.2052002 2.7373352 -0.4215088 4.8448944 -0.95092773 6.005295c0.52941895 -0.7388916 0.95092773 -1.5819092 1.1561279 -2.6332092c0.21618652 -0.9521179 0.3133545 -2.003418 0.3133545 -3.054718c0 -0.52565 0 -1.0562592 -0.09716797 -1.5819092c0 -0.20826721 -0.1081543 -0.52565 -0.1081543 -0.73887634c0 -0.20828247 -0.10803223 -0.52565 -0.21606445 -0.7339325c0.10803223 0.20828247 0.21606445 0.52565 0.21606445 0.7339325c0.1081543 0.21322632 0.1081543 0.53060913 0.20532227 0.73887634c0.10803223 0.52565 0.21618652 1.0562592 0.32421875 1.5819092c0.09716797 1.0513 0.09716797 2.1026 0 3.1588593c-0.10803223 1.0513 -0.42138672 2.2116852 -1.05896 3.158844c-0.10803223 0.104141235 -0.10803223 0.21324158 -0.20532227 0.3173828c1.8909912 -0.4215088 5.262085 -1.6860504 5.262085 -5.6879272c0 -5.583786 -2.949707 -9.26828 -13.581909 -9.26828c-10.642944 0 -30.437866 0 -30.437866 0c0 0 23.803589 1.155426 30.01648 1.4728088c6.320923 0.31736755 8.838501 3.6894531 9.16272 6.530945l0 0zm-48.028442 9.898071c2.6363525 1.3736267 5.6834717 2.7422943 8.319824 3.3720856c1.4694824 0.31736755 2.8417969 0.52565 4.105957 0.7388916c-0.42138672 -1.2645416 -0.626709 -2.8464508 -0.52941895 -4.527527c0.21606445 -2.424942 1.0588379 -4.636627 2.5283203 -6.2185364c0.32421875 -0.31240845 0.63757324 -0.62979126 0.95080566 -0.9471588c-1.5775146 -0.4215088 -5.0567627 -1.0513 -8.946533 -0.9471588c-2.0097656 0.63475037 -3.9006348 1.6860504 -5.3808594 2.529068c-0.51867676 0.9471588 -0.9400635 2.2116852 -1.0480957 3.684494c-0.10803223 0.7388916 -0.10803223 1.5819092 0 2.3158417l0 0zm-97.83972 -37.07315c7.8984375 1.0562592 50.54602 6.9524536 53.60388 7.269821c3.1550293 0.3173828 3.1550293 0 3.3710938 -1.2645264c0 -0.104141235 0 -0.104141235 0 -0.21324158c-0.10803223 -0.20826721 -0.95080566 -0.20826721 -1.5775146 -0.31240845c-0.21606445 0 -0.42138672 0 -0.6374512 0c-0.626709 0 -7.477173 -0.73887634 -16.110352 -1.6860504c-14.954224 -1.5819016 -35.386475 -3.7935944 -37.072144 -3.897728c-0.7347412 -0.104141235 -1.2641602 0 -1.5775146 0.104133606l0 0zm54.554688 -1.3686676c-2.6364746 0.738884 -3.6845703 1.3686676 -3.6845703 1.3686676l-10.956299 1.5819092l4.3220215 -1.264534c-2.4311523 0.4215088 -4.008667 0.738884 -4.538086 0.8430176c-0.3133545 0.52565 -0.51867676 1.0513 -0.626709 1.4728165c8.4279785 0.9471588 15.170288 1.6860352 15.688965 1.6860352c0.21606445 0 0.42138672 0 0.6374512 0c1.1561279 0.104141235 1.9989014 0.104141235 2.420288 0.63475037c0.20532227 0.3124237 0.3133545 0.62979126 0.20532227 1.0513c-0.09716797 1.0513 -0.42138672 1.6860504 -1.0480957 2.003418c-0.52941895 0.52565 -1.2641602 1.2595673 -1.8908691 1.8943176c5.1540527 2.2117004 10.102783 4.2101593 13.895264 5.578827c-0.10803223 -1.5769501 -0.3133545 -3.580368 -0.2052002 -6.4218445c0.09716797 -3.8977356 1.6855469 -6.635086 2.6256104 -8.003754c0.42138672 -0.63475037 1.1668701 -1.0562592 1.7935791 -1.0562592l2.4204102 0c0.31323242 0 0.52941895 0.21323395 0.7347412 0.4215088c0.21606445 0.31737518 0.21606445 0.8430252 0 1.1604004c-0.83203125 1.264534 -2.2043457 3.8977356 -2.4204102 7.3739624c-0.09716797 3.3671265 0.10803223 5.4746857 0.32421875 7.2648773l0.09716797 0.6347351c0.32421875 0.104141235 0.52941895 0.104141235 0.74560547 0.104141235c6.947632 0.104141235 50.859375 0.7339325 73.30139 1.1554413c7.7904053 0.10910034 14.11145 0.4215088 19.481445 0.9521179c-0.10803223 -1.3736267 -0.21606445 -2.7423096 -0.21606445 -4.3192444c0 -9.060013 2.215088 -14.534706 5.164795 -17.381142c-0.20532227 0 -0.52941895 0 -0.7347412 0l-13.484619 0.4215088c-8.946655 0.10910034 -17.904053 0.10910034 -26.850586 0.10910034c-8.957397 0 -17.90393 0 -26.861328 -0.10910034l-13.484741 -0.104141235c-4.5272217 -0.104133606 -8.946533 -0.104133606 -13.473877 -0.20827484c4.5273438 -0.10909271 8.946655 -0.10909271 13.473877 -0.21323395l13.484741 -0.104133606c8.957397 -0.104141235 17.90393 -0.104141235 26.861328 -0.104141235c8.946533 0 17.90393 0 26.850586 0.104141235l13.484619 0.104133606c0.42138672 0 0.7347412 0 1.1561279 0c0.626709 -0.52565 1.1561279 -0.9471588 1.7937012 -1.264534l-86.6781 0c-12.328491 0 -24.64624 1.3686752 -33.80896 2.6332092l0 0zm16.531738 -2.9456253c3.1658936 -0.21323395 6.526245 -0.4215088 9.897339 -0.63474274l-10.524048 -5.8961945l0.626709 6.530937l0 0zm-25.586426 -50.769775l-3.5872803 0l8.006592 53.293884c0.10803223 0 0.20532227 0 0.42138672 -0.104133606l-7.7904053 -52.65914l1.5775146 0l12.6311035 51.711983c4.116699 -0.52565 8.849365 -1.0513 13.798096 -1.4728165l-0.7347412 -7.269821l-20.637695 -41.17917c-0.74560547 -1.3686676 -2.215088 -2.3207855 -3.6845703 -2.3207855l0 0zm155.65747 63.196922c-0.10803223 -1.0562592 -0.2052002 -2.003418 -0.52941895 -3.054718c0 1.0513 0 1.9984589 0.10803223 3.054718c0.10803223 1.0513 0.21618652 1.9984589 0.529541 3.054718c0.10803223 -1.0562592 0 -2.1075592 -0.1081543 -3.054718l0 0zm10.534912 -0.7388916c-0.6374512 -0.9471588 -1.3721924 -1.9984589 -2.1069336 -2.8414764c0.52941895 1.0513 1.1561279 2.1026 1.7935791 3.054718c0.626709 0.9471588 1.3614502 1.9984589 2.0961914 2.8414764c-0.5185547 -1.0513 -1.1561279 -2.1075592 -1.7828369 -3.054718l0 0zm-13.592651 31.281097l-0.20532227 -2.529068c-1.9017334 0 -3.7926025 0 -5.6834717 0l0.20532227 2.8464355l5.6834717 -0.31736755l0 0zm6.428955 -2.7373505c-0.10803223 0 -0.21606445 0 -0.3133545 0l0.20532227 1.5769501l-3.9979248 0.8430176l-0.10803223 0.10910034l4.3220215 -0.53060913l-0.10803223 -1.9984589l0 0zm-32.328735 -1.477768l2.2042236 0l2.215088 0.10910034l2.215088 0.104141235l2.2042236 0.10412598c5.791504 0.3173828 11.69104 0.52565 17.482544 0.52565c2.949707 0 5.791504 -0.10412598 8.741211 -0.20826721c2.949829 -0.21324158 5.791504 -0.4215088 8.741333 -0.9471588c2.852539 -0.52565 5.791504 -1.1604004 8.536011 -2.3158417c1.3721924 -0.6347351 2.6363525 -1.3736267 3.6844482 -2.529068c0.3133545 -0.31736755 0.52941895 -0.6347351 0.7347412 -0.9471588c0.74560547 -0.9521179 1.1669922 -1.8992767 1.1669922 -3.054718c0 -2.107544 -1.1669922 -4.636612 -2.949829 -7.269821c-0.21606445 -0.31736755 -0.52941895 -0.7339325 -0.7454834 -1.0513c-0.9400635 -1.2645264 -1.9989014 -2.529068 -3.046997 -3.6894684c-1.05896 -1.155426 -2.215088 -2.3158264 -3.2631836 -3.3671265c-5.694214 1.2645416 -13.063232 2.1075592 -18.325317 2.1075592c-4.116699 0 -8.4279785 0.31240845 -10.329712 0.4215088c-0.5185547 0 -1.0479736 -0.4215088 -1.0479736 -0.9521179c0.10803223 -1.3686676 0.52941895 -4.106018 2.5283203 -6.635086c0 0 5.996826 -0.4215088 10.42688 -0.4215088c3.3712158 0 7.8984375 -0.62979126 9.789307 -0.9471588c-3.6844482 -3.3671265 -10.740112 -7.3690033 -23.803467 -7.3690033l-12.004395 0c-0.95080566 0.20827484 -1.8908691 0.62978363 -2.8416748 1.2595749c3.6844482 0 7.3690186 0.10909271 11.053467 0.10909271c-3.7817383 0.104141235 -7.682373 0.104141235 -11.4748535 0.104141235c-2.6364746 2.1075516 -4.7435303 6.213562 -5.370117 12.952789c-0.21618652 1.5819092 -0.21618652 3.2679443 -0.3133545 4.8448944c0 2.8464508 0.2052002 5.583786 0.626709 8.321136c0.52941895 2.7373352 1.1561279 5.479645 2.420288 8.003754c-0.51867676 -1.2645416 -0.9400635 -2.6332092 -1.2641602 -4.001877c-0.3133545 -1.3686829 -0.626709 -2.7373505 -0.8428955 -4.106018c-0.2052002 -1.4728088 -0.31323242 -2.9505768 -0.42138672 -4.4233856c0.95092773 0.10412598 1.9017334 0.20826721 2.852539 0.31736755c-0.21606445 -2.2117004 -0.32409668 -5.479645 -0.10803223 -9.37738c0.20532227 -5.053177 2.7336426 -8.2120285 3.576538 -9.055054c0.6374512 -0.738884 1.5775146 -1.1603928 2.6363525 -1.1603928l3.479248 0c0.42138672 0 0.84277344 0.21323395 1.0480957 0.63474274c0.20532227 0.4215088 0.10803223 0.9471588 -0.20532227 1.2595749c-0.6374512 0.738884 -2.852539 3.6894608 -3.0578613 8.321129c-0.21606445 4.110977 -0.10803223 7.69133 0.1081543 9.798889c0 0.3124237 0 0.62979126 -0.1081543 0.9471588c4.635376 1.1554413 8.525269 2.8414917 12.317749 5.157318c7.8985596 4.740753 23.27417 7.691345 32.96631 4.8448944c-2.6364746 1.1604004 -5.5754395 1.8992767 -8.4279785 2.3208008c-2.8417969 0.4215088 -5.791504 0.73391724 -8.633301 0.9471588c-2.949707 0.20826721 -5.791504 0.31240845 -8.741211 0.31240845c-5.791504 0.10910034 -11.69104 -0.104141235 -17.482544 -0.41654968l-2.215088 -0.10910034l-2.2042236 0l-2.2149658 0l-2.215088 0c-2.949829 0 -5.791504 0.10910034 -8.741333 0.21324158c-2.949707 0.20826721 -5.791504 0.52565 -8.741211 0.9471588c-1.4694824 0.20826721 -2.8417969 0.4215088 -4.3112793 0.62979126c-1.4802246 0.21322632 -2.949707 0.21322632 -4.3220215 0.31736755c1.4694824 0 2.949829 -0.104141235 4.3220215 -0.20828247c1.4694824 -0.10908508 2.9389648 -0.31736755 4.3112793 -0.6347351c2.8416748 -0.42152405 5.791504 -0.7388916 8.741211 -0.9471741c2.8417969 0.20828247 5.791504 0.104141235 8.644043 0.20828247z" fill-rule="evenodd"/></g></svg>